# xmcd
# 
# Track frame offsets:
#     150
#     12998
#     31499
#     44155
#     57883
#     77432
#     89247
#     104478
#     116434
#     127814
#     140549
#     152913
#     165384
#     177526
#     191580
#     205148
#     218969
#     231946
#     244862
#     258328
#     271483
#     285708
#     296912
# 
# Disc length: 4111
# 
# Revision: 2
# Processed by: cddbd v1.5.2PL0 Copyright (c) Steve Scherf et al.
# Submitted via: fre:ac v1.0.17
# 
DISCID=5f100d17
DTITLE=Blind Lemon Jefferson - Blind Lemon Jefferson 
DYEAR=1961
DGENRE=Blues
TTITLE0=T-Bone Walker - Two Bones And  A Pick
TTITLE1=T-Bone Walker - Mean Old World
TTITLE2=T-Bone Walker - T-Bone Shuffle
TTITLE3=T-Bone Walker - Stormy Monday Blues
TTITLE4=T-Bone Walker - Blues For Marili
TTITLE5=T-Bone Walker - T-Bone Blues
TTITLE6=T-Bone Walker - Shufflin' The Blues
TTITLE7=T-Bone Walker - Evenin'
TTITLE8=T-Bone Walker - Play On Little Girl
TTITLE9=T-Bone Walker - Blues Rock
TTITLE10=T-Bone Walker - Papa Ain't Salty
TTITLE11=Blind Lemon Jefferson - Jack O'Diamonds
TTITLE12=Blind Lemon Jefferson - Chock House Blues
TTITLE13=Blind Lemon Jefferson - Stocking Feet Blues
TTITLE14=Blind Lemon Jefferson - The Black Snake Moan
TTITLE15=Blind Lemon Jefferson - Shuckin' Sugar Blues
TTITLE16=Blind Lemon Jefferson - Rabbit Foot Blues
TTITLE17=Blind Lemon Jefferson - Bad Luck Blues
TTITLE18=Blind Lemon Jefferson - Broke And Hungry
TTITLE19=Blind Lemon Jefferson - Easy Rider Blues
TTITLE20=Blind Lemon Jefferson - Match Box Blues
TTITLE21=Blind Lemon Jefferson - Rising High Water Blues
TTITLE22=Blind Lemon Jefferson - Teddy Bear Blues
EXTD=
EXTT0=
EXTT1=
EXTT2=
EXTT3=
EXTT4=
EXTT5=
EXTT6=
EXTT7=
EXTT8=
EXTT9=
EXTT10=
EXTT11=
EXTT12=
EXTT13=
EXTT14=
EXTT15=
EXTT16=
EXTT17=
EXTT18=
EXTT19=
EXTT20=
EXTT21=
EXTT22=
PLAYORDER=
